<svg width="60" height="60" viewBox="0 0 60 60" fill="none" xmlns="http://www.w3.org/2000/svg">
<g clip-path="url(#clip0_1022_31366)">
<path d="M30 37.5C31.5586 37.5 32.8125 36.2461 32.8125 34.6875V19.6875C32.8125 18.1348 31.5528 16.875 30.1055 16.875C28.6583 16.875 27.1875 18.1406 27.1875 19.6875V34.6875C27.1875 36.2461 28.4532 37.5 30 37.5ZM30 41.3789C27.9657 41.3789 26.3157 43.0289 26.3157 45.0633C26.3204 47.0977 27.961 48.75 30 48.75C32.0391 48.75 33.6844 47.1 33.6844 45.0656C33.6797 43.0312 32.0391 41.3789 30 41.3789Z" fill="#F6553C"/>
<path opacity="0.4" d="M59.3321 48.8672L34.336 6.21094C32.4224 2.92969 27.5931 2.92969 25.6665 6.21094L0.682121 48.8672C-1.24093 52.1367 1.15427 56.25 5.00868 56.25H55.0009C58.8399 56.25 61.2423 52.1484 59.3321 48.8672ZM27.1876 19.6875C27.1876 18.1348 28.4474 16.875 30.0001 16.875C31.5528 16.875 32.8126 18.1406 32.8126 19.6875V34.6875C32.8126 36.2402 31.5528 37.5 30.1056 37.5C28.6583 37.5 27.1876 36.2461 27.1876 34.6875V19.6875ZM30.0001 48.75C27.9657 48.75 26.3157 47.1 26.3157 45.0656C26.3157 43.0312 27.9645 41.3812 30.0001 41.3812C32.0356 41.3812 33.6845 43.0312 33.6845 45.0656C33.6798 47.0977 32.0392 48.75 30.0001 48.75Z" fill="#F6553C"/>
</g>
<defs>
<clipPath id="clip0_1022_31366">
<rect width="60" height="60" fill="white"/>
</clipPath>
</defs>
</svg>
