<svg width="200" height="200" viewBox="0 0 200 200" fill="none" xmlns="http://www.w3.org/2000/svg">
<path d="M183.333 99.9993C183.333 146.02 146.021 183.333 100 183.333C53.9792 183.333 16.6667 146.02 16.6667 99.9993C16.6667 53.9785 53.9792 16.666 100 16.666C146.021 16.666 183.333 53.9785 183.333 99.9993Z" fill="url(#paint0_linear_72_34402)"/>
<path opacity="0.05" d="M134.05 67.384L91.6666 109.767L70.1166 88.2173C66.8624 84.9632 61.5874 84.9632 58.3333 88.2173L52.4416 94.109C49.1874 97.3631 49.1874 102.638 52.4416 105.892L85.7749 139.226C89.0291 142.48 94.3041 142.48 97.5583 139.226L151.725 85.059C154.979 81.8048 154.979 76.5298 151.725 73.2756L145.833 67.384C142.579 64.1298 137.304 64.1298 134.05 67.384Z" fill="black"/>
<path opacity="0.07" d="M87.2459 137.754L53.9125 104.421C51.4709 101.979 51.4709 98.0211 53.9125 95.5836L59.8042 89.6919C62.2459 87.2503 66.2042 87.2503 68.6417 89.6919L91.6667 112.713L135.521 68.8586C137.963 66.4169 141.921 66.4169 144.358 68.8586L150.25 74.7503C152.692 77.1919 152.692 81.1503 150.25 83.5878L96.0834 137.754C93.6459 140.192 89.6875 140.192 87.2459 137.754Z" fill="black"/>
<path d="M88.7207 136.279L55.3874 102.946C53.7582 101.317 53.7582 98.6793 55.3874 97.0543L61.2791 91.1626C62.9082 89.5335 65.5457 89.5335 67.1707 91.1626L91.6666 115.658L136.996 70.3293C138.625 68.7001 141.262 68.7001 142.887 70.3293L148.779 76.221C150.408 77.8501 150.408 80.4876 148.779 82.1126L94.6124 136.279C92.9874 137.908 90.3457 137.908 88.7207 136.279Z" fill="white"/>
<defs>
<linearGradient id="paint0_linear_72_34402" x1="41.0755" y1="41.0748" x2="158.925" y2="158.924" gradientUnits="userSpaceOnUse">
<stop stop-color="#21AD64"/>
<stop offset="1" stop-color="#088242"/>
</linearGradient>
</defs>
</svg>
